<svg xmlns="http://www.w3.org/2000/svg" viewBox="0 0 800 1000" width="800" height="1000"><defs>
<linearGradient id="bg" x1="0" y1="0" x2="1" y2="1"><stop offset="0" stop-color="#FCE4EF"/><stop offset="1" stop-color="#F8BBD9"/></linearGradient>
<linearGradient id="gold" x1="0" y1="0" x2="1" y2="0"><stop offset="0" stop-color="#B8872E"/><stop offset=".45" stop-color="#E9D18A"/><stop offset=".6" stop-color="#D4AF37"/><stop offset="1" stop-color="#B8872E"/></linearGradient>
<linearGradient id="pink" x1="0" y1="0" x2="1" y2="0"><stop offset="0" stop-color="#AD1457"/><stop offset=".5" stop-color="#E75A9B"/><stop offset="1" stop-color="#C2185B"/></linearGradient>
<radialGradient id="glow" cx=".5" cy=".45" r=".5"><stop offset="0" stop-color="#FFFFFF" stop-opacity=".9"/><stop offset="1" stop-color="#FFFFFF" stop-opacity="0"/></radialGradient>
</defs>
<rect width="800" height="1000" fill="url(#bg)"/><ellipse cx="400" cy="460" rx="330" ry="330" fill="url(#glow)"/>
<ellipse cx="400" cy="835" rx="210" ry="26" fill="#AD1457" opacity=".08"/><rect x="370" y="560" width="60" height="270" rx="30" fill="#2B1A22" opacity=".85"/><rect x="352" y="440" width="96" height="130" rx="10" fill="url(#gold)"/>
<path d="M356 446 C330 355 345 280 400 235 C455 280 470 355 444 446 Z" fill="#F8BBD9"/><path d="M366 330 C376 290 388 262 400 248 C412 262 424 290 434 330 Q400 346 366 330 Z" fill="url(#pink)" opacity=".6"/></svg>